<svg width="147" height="30" viewBox="0 0 147 30" fill="none" xmlns="http://www.w3.org/2000/svg">
<path d="M37.1193 29.5161L34.4119 22.7823H20.7533L18.0459 29.5161H14.0857L25.4409 1.69355H29.8456L41.2007 29.5161H37.1193ZM22.1273 19.3548H33.0379L27.5826 5.68548L22.1273 19.3548Z" fill="#F00586"/>
<path d="M44.1248 29.5161V1.69355H47.8425V29.5161H44.1248Z" fill="#F00586"/>
<path d="M66.7101 30C58.426 30 52.1221 23.7903 52.1221 15.6048C52.1221 7.41935 58.426 1.20968 66.7101 1.20968C73.4989 1.20968 78.9947 5.44355 80.6919 11.4113H76.7721C75.1961 7.45968 71.3572 4.75807 66.7101 4.75807C60.5678 4.75807 55.9206 9.43548 55.9206 15.6048C55.9206 21.7742 60.5678 26.4516 66.7101 26.4516C71.3572 26.4516 75.1961 23.75 76.7721 19.7984H80.6919C78.9947 25.7661 73.4989 30 66.7101 30Z" fill="#F00586"/>
<path d="M97.5443 26.1694H98.595V29.5161H97.3019C94.2307 29.5161 91.5637 28.4274 89.3816 26.4919C87.8864 27.7419 86.2296 28.7903 84.4111 29.5161L83.0372 26.7339C84.5324 26.0484 85.9467 25.121 87.159 24.0323C84.8153 20.7258 83.4817 16.1694 83.4817 10.9677C83.4817 3.83065 86.3104 0 90.5939 0C94.6753 0 97.3019 3.54839 97.3019 9.55645C97.3019 14.879 95.3218 20.0806 91.9274 24.0323C93.5034 25.4032 95.4026 26.1694 97.5443 26.1694ZM90.513 3.34677C88.4521 3.34677 87.0378 5.72581 87.0378 10.6855C87.0378 14.8387 88.0076 18.5887 89.7048 21.3306C92.2507 18.0242 93.7458 13.7903 93.7458 9.51613C93.7458 5.60484 92.4931 3.34677 90.513 3.34677Z" fill="#F00586"/>
<path d="M121.846 26.1694H122.21V29.5161H121.159C118.492 29.5161 116.876 28.3065 116.431 26.0887C114.896 28.5887 112.39 30 109.198 30C104.389 30 101.156 26.7742 101.156 21.8952V8.95161H104.632V20.8871C104.632 24.3548 106.854 26.6532 110.289 26.6532C113.885 26.6532 116.31 24.3145 116.31 20.8065V8.95161H119.785V24.1129C119.785 25.3629 120.553 26.1694 121.846 26.1694Z" fill="#F00586"/>
<path d="M136.655 8.46774C142.555 8.46774 147 13.1048 147 19.2339C147 25.3629 142.555 30 136.655 30C133.22 30 130.351 28.3065 128.654 25.6048V29.5161H125.179V0.483872H128.654V12.8629C130.351 10.1613 133.22 8.46774 136.655 8.46774ZM136.009 26.6532C140.252 26.6532 143.404 23.4677 143.404 19.2339C143.404 15 140.252 11.8145 136.009 11.8145C131.806 11.8145 128.654 15 128.654 19.2339C128.654 23.4677 131.806 26.6532 136.009 26.6532Z" fill="#F00586"/>
<path d="M8.74041e-07 21.7402H1.34045L1.34045 24.9752H10.7548V26.4061H1.34045L1.34045 29.6411H1.22015e-06L8.74041e-07 21.7402Z" fill="#F00586"/>
<path d="M4.74514e-07 12.6198L4.11833e-07 11.189L10.7548 11.189V12.6198H6.01645V18.5922H10.7548V20.0231L7.9882e-07 20.0231L7.36139e-07 18.5922H4.676V12.6198H4.74514e-07Z" fill="#F00586"/>
<path d="M9.41434 7.23121L9.41434 1.7099L10.7548 1.70989L10.7548 8.66208L3.01141e-07 8.66208L0 1.78766H1.34045L1.34045 7.23121H4.676V2.30091H6.01645L6.01645 7.23121L9.41434 7.23121Z" fill="#F00586"/>
</svg>
